<svg width="38" height="38" viewBox="0 0 38 38" fill="none" xmlns="http://www.w3.org/2000/svg">
<path d="M10.4167 0.25C4.67292 0.25 0 4.92292 0 10.6667V27.3333C0 33.0771 4.67292 37.75 10.4167 37.75H27.0833C32.8271 37.75 37.5 33.0771 37.5 27.3333V10.6667C37.5 4.92292 32.8271 0.25 27.0833 0.25H10.4167ZM10.4167 4.41667H27.0833C30.5292 4.41667 33.3333 7.22083 33.3333 10.6667V27.3333C33.3333 30.7792 30.5292 33.5833 27.0833 33.5833H10.4167C6.97083 33.5833 4.16667 30.7792 4.16667 27.3333V10.6667C4.16667 7.22083 6.97083 4.41667 10.4167 4.41667ZM29.1667 6.5C28.6141 6.5 28.0842 6.71949 27.6935 7.11019C27.3028 7.5009 27.0833 8.0308 27.0833 8.58333C27.0833 9.13587 27.3028 9.66577 27.6935 10.0565C28.0842 10.4472 28.6141 10.6667 29.1667 10.6667C29.7192 10.6667 30.2491 10.4472 30.6398 10.0565C31.0305 9.66577 31.25 9.13587 31.25 8.58333C31.25 8.0308 31.0305 7.5009 30.6398 7.11019C30.2491 6.71949 29.7192 6.5 29.1667 6.5ZM18.75 8.58333C13.0062 8.58333 8.33333 13.2562 8.33333 19C8.33333 24.7437 13.0062 29.4167 18.75 29.4167C24.4937 29.4167 29.1667 24.7437 29.1667 19C29.1667 13.2562 24.4937 8.58333 18.75 8.58333ZM18.75 12.75C22.1958 12.75 25 15.5542 25 19C25 22.4458 22.1958 25.25 18.75 25.25C15.3042 25.25 12.5 22.4458 12.5 19C12.5 15.5542 15.3042 12.75 18.75 12.75Z" fill="white"/>
</svg>
